<?xml version="1.0" encoding="UTF-8"?><svg id="chaplinlogo"  xmlns="http://www.w3.org/2000/svg" viewBox="0 0 687.58 993.55"><defs><style>.cls-1{stroke-width:6px;}.cls-1,.cls-2,.cls-3{stroke-linecap:round;stroke-linejoin:round;}.cls-1,.cls-4{stroke:#566af0;}.cls-1,.cls-4,.cls-3,.cls-5{fill:none;}.cls-6,.cls-7{font-family:H2gtrE, HYGothic-Extra;font-size:129.31px;}.cls-7{fill:#566af0;}.cls-2,.cls-3{stroke-width:10px;}.cls-2,.cls-3,.cls-5{stroke:#000;}.cls-4{stroke-width:3px;}.cls-4,.cls-5{stroke-miterlimit:10;}.cls-5{stroke-width:15px;}</style></defs><g id="_이어_1-2"><text class="cls-7" transform="translate(79.97 223.35) rotate(-41.33)"><tspan x="0" y="0">C</tspan></text><text class="cls-7" transform="translate(151.76 158.98) rotate(-24.01)"><tspan x="0" y="0">H</tspan></text><text class="cls-7" transform="translate(239.48 118.94) rotate(-6.58)"><tspan x="0" y="0">A</tspan></text><text class="cls-7" transform="translate(335.44 107.8) rotate(9.72)"><tspan x="0" y="0">P</tspan></text><text class="cls-7" transform="translate(420.48 122.01) rotate(24.87)"><tspan x="0" y="0">L</tspan></text><text class="cls-6" transform="translate(494.03 157.7) rotate(36.28)"><tspan x="0" y="0">I</tspan></text><text class="cls-6" transform="translate(531.74 181.09) rotate(48.99)"><tspan x="0" y="0">N</tspan></text><path class="cls-5" d="M630.48,440.83c0,136.41-225.08,451.57-288.03,537.03-8.04,10.92-24.32,10.92-32.36,0C247.15,892.4,22.07,577.24,22.07,440.83c0-158.58,136.2-287.13,304.2-287.13s304.2,128.55,304.2,287.13Z"/><path class="cls-3" d="M199.82,534.92c1.65-.2,147.97-95.8,265.82,5.28"/><circle cx="277.04" cy="558.28" r="10.1"/><circle cx="392.71" cy="558.28" r="10.1"/><path class="cls-1" d="M248.54,692.06v-135.49c0-15.21,12.74-27.93,27.9-26.66,6.74,.57,13.94,3.8,20.63,11.99,6.92,8.46,8.13,20.42,2.63,29.87-6.46,11.1-20.26,21.22-49.36,6.66"/><g><path d="M336.44,593.96c.3-5.91-3.96-11.11-10.06-12.45-4.72-1.04-8.64-2.66-14.48,4.38,0,0-4,5.29-6.92,10.72-1.22,2.27-3.07,4.17-5.41,5.43-5.5,2.96-15.31,7.22-23.11,5.07,0,0-5.89,.97-1.69,7.48,1.05,1.62,2.55,2.94,4.27,3.91,6.57,3.7,25.26,11.17,50.97-4.15,3.51-2.09,5.69-5.74,5.88-9.66l.54-10.73Z"/><path d="M329.48,593.52c-.3-5.91,3.96-11.11,10.06-12.45,4.72-1.04,8.64-2.66,14.48,4.38,0,0,4,5.29,6.92,10.72,1.22,2.27,3.07,4.17,5.41,5.43,5.5,2.96,15.31,7.22,23.11,5.07,0,0,5.89,.97,1.69,7.48-1.05,1.62-2.55,2.94-4.27,3.91-6.57,3.7-25.26,11.17-50.97-4.15-3.51-2.09-5.69-5.74-5.88-9.66l-.54-10.73Z"/></g><path class="cls-2" d="M237.61,515.57s-26.55-157.74,96.6-157.3c1.68,0,.23-.07,5.02-.26,4.58-.18,104.16-3.43,90.85,154.76,0,0-92.51-50.3-192.47,2.8Z"/><path class="cls-4" d="M236.72,508.87s-19.22-149.24,92.74-150.53c0,0,110.19-13.14,100.93,150.53"/></g></svg>